<mxfile host="app.diagrams.net" agent="Mozilla/5.0 (Windows NT 10.0; Win64; x64) AppleWebKit/537.36 (KHTML, like Gecko) Chrome/141.0.0.0 Safari/537.36" version="28.2.8">
  <diagram name="第 1 页" id="2n3KgUWMzvEAdIRNrWVw">
    <mxGraphModel dx="2220" dy="1226" grid="1" gridSize="10" guides="1" tooltips="1" connect="1" arrows="1" fold="1" page="1" pageScale="1" pageWidth="827" pageHeight="1169" math="0" shadow="0">
      <root>
        <mxCell id="0" />
        <mxCell id="1" parent="0" />
        <UserObject label="江青贤" link="https://viewer.diagrams.net/?tags=%7B%7D&amp;lightbox=1&amp;highlight=0000ff&amp;edit=_blank&amp;layers=1&amp;nav=1&amp;title=%E6%B1%9F%E6%B0%8F%E5%AE%B6%E6%97%8F%E5%9B%BE.drawio&amp;dark=auto#Uhttps%3A%2F%2Fraw.githubusercontent.com%2Ftoppemonkey%2Fprocessing_folder%2Fmain%2F%E5%AE%B6%E6%97%8F%E7%BB%93%E6%9E%84%E5%9B%BE%2F%E6%B1%9F%E6%B0%8F%E5%AE%B6%E6%97%8F%E5%9B%BE.drawio" id="S-B3BTwMpIaSL_bHsfcL-1">
          <mxCell style="rounded=0;whiteSpace=wrap;html=1;" vertex="1" parent="1">
            <mxGeometry x="390" y="370.0000000000001" width="80" height="40" as="geometry" />
          </mxCell>
        </UserObject>
        <mxCell id="S-B3BTwMpIaSL_bHsfcL-3" value="夫妻" style="edgeStyle=orthogonalEdgeStyle;rounded=0;orthogonalLoop=1;jettySize=auto;html=1;exitX=1;exitY=0.5;exitDx=0;exitDy=0;entryX=0;entryY=0.5;entryDx=0;entryDy=0;endArrow=none;endFill=0;" edge="1" parent="1" source="S-B3BTwMpIaSL_bHsfcL-2" target="S-B3BTwMpIaSL_bHsfcL-1">
          <mxGeometry relative="1" as="geometry" />
        </mxCell>
        <mxCell id="S-B3BTwMpIaSL_bHsfcL-2" value="陈兴蓉" style="rounded=1;whiteSpace=wrap;html=1;" vertex="1" parent="1">
          <mxGeometry x="280" y="370.0000000000001" width="80" height="40" as="geometry" />
        </mxCell>
      </root>
    </mxGraphModel>
  </diagram>
</mxfile>
